<?xml version="1.0" encoding="UTF-8"?>
<svg version="1.1" viewBox="0 0 12.699 15.874" xmlns="http://www.w3.org/2000/svg">
 <g transform="translate(-123.27 -133.86)" fill="#fb0093" stroke-linecap="round" stroke-linejoin="round">
  <path d="m127.88 138.92c-0.4777-1e-5 -0.87305 0.39535-0.87305 0.87304v4.8359c0 0.4777 0.39535 0.875 0.87305 0.875h1.6387c1.813 0 3.293-1.4797 3.293-3.293 0-1.8132-1.4797-3.291-3.293-3.291zm0 0.79296h1.6387c1.3842 0 2.498 1.1138 2.498 2.498 0 1.3843-1.1141 2.498-2.498 2.498h-1.6387c-0.0487 0-0.0801-0.0314-0.0801-0.0801v-4.8359c0-0.0487 0.0314-0.0801 0.0801-0.0801z" color="#000000"/>
  <path d="m132.41 141.81a0.39688 0.39688 0 0 0-0.39648 0.39648 0.39688 0.39688 0 0 0 0.39648 0.39649h2.127a0.39688 0.39688 0 0 0 0.39648-0.39649 0.39688 0.39688 0 0 0-0.39648-0.39648z" color="#000000"/>
  <path d="m124.73 143.26a0.39688 0.39688 0 0 0-0.39844 0.39648 0.39688 0.39688 0 0 0 0.39844 0.39844h2.6641a0.39688 0.39688 0 0 0 0.39648-0.39844 0.39688 0.39688 0 0 0-0.39648-0.39648z" color="#000000"/>
  <path d="m124.73 140.37a0.39688 0.39688 0 0 0-0.39844 0.39649 0.39688 0.39688 0 0 0 0.39844 0.39648h2.668a0.39688 0.39688 0 0 0 0.39648-0.39648 0.39688 0.39688 0 0 0-0.39648-0.39649z" color="#000000"/>
 </g>
</svg>
