<?xml version="1.0" encoding="UTF-8"?>
<!-- Created with Inkscape (http://www.inkscape.org/) -->
<svg width="2500" height="2500" version="1.1" viewBox="0 0 661.46 661.46" xmlns="http://www.w3.org/2000/svg"><g fill="#b5d1fd" stroke-width=".26458" aria-label="T"><path d="m627.61 171.31 2.9714 62.994h-7.5275q-2.179-16.64-5.9428-23.771-6.1409-11.489-16.442-16.838-10.103-5.5466-26.743-5.5466h-37.836v205.22q0 24.762 5.3485 30.902 7.5275 8.3199 23.177 8.3199h9.3104v7.3294h-113.9v-7.3294h9.5085q17.036 0 24.167-10.301 4.358-6.339 4.358-28.922v-205.22h-32.289q-18.819 0-26.743 2.7733-10.301 3.7638-17.63 14.461-7.3294 10.697-8.7161 28.922h-7.5275l3.1695-62.994z"/></g><g fill="#ffa6a6" stroke-width=".26458" aria-label="M"><path d="m375.15 492.13-54.157-117.93v93.638q0 12.919 2.7905 16.123 3.8241 4.3408 12.092 4.3408h4.961v3.8241h-48.783v-3.8241h4.9609q8.8884 0 12.609-5.3744 2.2738-3.3073 2.2738-15.09v-91.571q0-9.3018-2.0671-13.436-1.4469-2.9972-5.3744-4.961-3.8241-2.0671-12.402-2.0671v-3.8241h39.688l50.85 109.66 50.023-109.66h39.688v3.8241h-4.8576q-8.9917 0-12.712 5.3744-2.2738 3.3073-2.2738 15.09v91.571q0 12.919 2.8939 16.123 3.8241 4.3408 12.092 4.3408h4.8576v3.8241h-59.531v-3.8241h4.961q8.9917 0 12.609-5.3744 2.2738-3.3073 2.2738-15.09v-93.638l-54.054 117.93z"/></g><g fill="#b5fecb" stroke-width=".265" aria-label="G"><path d="m286.43 164.84 7.2347 88.47h-7.2347q-10.955-33.073-28.319-49.816-25.011-24.185-64.285-24.185-53.537 0-81.442 42.375-23.358 35.76-23.358 85.163 0 40.101 15.503 73.174 15.503 33.073 40.514 48.576 25.218 15.296 51.676 15.296 15.503 0 29.972-3.9274 14.469-3.9274 27.905-11.576v-81.029q0-21.084-3.3073-27.492-3.1006-6.6146-9.9219-9.9219-6.6146-3.514-23.564-3.514v-7.8548h108.52v7.8548h-5.1676q-16.123 0-22.118 10.749-4.1341 7.6481-4.1341 30.179v85.783q-23.771 12.816-46.922 18.81-23.151 5.9945-51.47 5.9945-81.235 0-123.4-52.09-31.626-39.067-31.626-90.124 0-37 17.777-70.9 21.084-40.308 57.878-62.012 30.799-17.983 72.76-17.983 15.296 0 27.699 2.4805 12.609 2.4805 35.553 10.955 11.576 4.3408 15.503 4.3408 3.9274 0 6.6146-3.514 2.8939-3.7207 3.514-14.263z"/></g></svg>
